<svg xmlns="http://www.w3.org/2000/svg" viewBox="0 0 128 160" x="0px" y="0px"><title>Astronaut, gravity, space, astronomy, observation, universe, travel</title><path d="M114.305,31.667a4.84,4.84,0,0,1-4.834-4.834,5.507,5.507,0,0,1,5.19-5.264c2.737,0,4.942,3.112,4.942,5.687C119.6,30.017,116.91,31.667,114.305,31.667Zm.356-7.1a2.564,2.564,0,0,0-2.19,2.264,1.836,1.836,0,0,0,1.834,1.834c1.11,0,2.3-.567,2.3-1.411C116.6,26.076,115.514,24.569,114.661,24.569Z"/><path d="M113.7,98.483a6.239,6.239,0,0,1-6.232-6.232,7.253,7.253,0,0,1,6.738-6.843c3.538,0,6.387,4.072,6.387,7.444C120.6,96.377,117.092,98.483,113.7,98.483Zm.506-10.075a4.3,4.3,0,0,0-3.738,3.843,3.236,3.236,0,0,0,3.232,3.232c1.872,0,3.893-1.005,3.893-2.631C117.6,90.993,115.89,88.408,114.21,88.408Z"/><path d="M21.019,18.723a4.81,4.81,0,0,1-4.8-4.8,5.471,5.471,0,0,1,5.157-5.23c2.721,0,4.912,3.091,4.912,5.65C26.284,17.083,23.607,18.723,21.019,18.723Zm.353-7.035a2.526,2.526,0,0,0-2.157,2.23,1.807,1.807,0,0,0,1.8,1.805c1.094,0,2.265-.557,2.265-1.385C23.284,13.2,22.194,11.688,21.372,11.688Z"/><path d="M24.759,33.739a3.951,3.951,0,0,1-3.947-3.947,4.463,4.463,0,0,1,4.209-4.264c2.268,0,4.027,2.459,4.027,4.575C29.048,32.379,26.867,33.739,24.759,33.739Zm.262-5.211a1.525,1.525,0,0,0-1.209,1.264.948.948,0,0,0,.947.947c.638,0,1.289-.321,1.289-.636C26.048,29.4,25.36,28.528,25.021,28.528Z"/><path d="M36.377,114.269a3.952,3.952,0,0,1-3.947-3.948,4.463,4.463,0,0,1,4.209-4.263c2.268,0,4.027,2.459,4.027,4.574C40.666,112.908,38.485,114.269,36.377,114.269Zm.262-5.211a1.524,1.524,0,0,0-1.209,1.263.948.948,0,0,0,.947.948c.639,0,1.289-.322,1.289-.637C37.666,109.924,36.979,109.058,36.639,109.058Z"/><path d="M19.043,92.619l-.547-.3-.3-.546a3.556,3.556,0,0,0-6.24,0l-.3.546-.547.3a3.557,3.557,0,0,0,0,6.24l.547.3.3.546a3.556,3.556,0,0,0,6.24,0l.3-.546.547-.3a3.556,3.556,0,0,0,0-6.24ZM17.6,96.227l-1.174.642a.559.559,0,0,0-.221.221l-.642,1.175a.557.557,0,0,1-.976,0l-.643-1.175a.553.553,0,0,0-.221-.221l-1.174-.642a.556.556,0,0,1,0-.976l1.174-.642a.553.553,0,0,0,.221-.221l.643-1.175a.557.557,0,0,1,.976,0l.642,1.175a.559.559,0,0,0,.221.221l1.174.642A.556.556,0,0,1,17.6,96.227Z"/><path d="M98.185,13.4l-.546-.3-.3-.547a3.556,3.556,0,0,0-6.24,0l-.3.547-.546.3a3.556,3.556,0,0,0,0,6.24l.546.3.3.547a3.557,3.557,0,0,0,6.24,0l.3-.547.546-.3a3.556,3.556,0,0,0,0-6.24Zm-1.44,3.608-1.174.643a.553.553,0,0,0-.221.221l-.642,1.174a.557.557,0,0,1-.976,0l-.643-1.174a.547.547,0,0,0-.221-.221l-1.174-.643a.556.556,0,0,1,0-.976l1.174-.642a.553.553,0,0,0,.221-.221L93.732,14a.556.556,0,0,1,.976,0l.642,1.174a.559.559,0,0,0,.221.221l1.174.642A.556.556,0,0,1,96.745,17.008Z"/><path d="M51.551,31.8c-6.918,0-12.758-3.269-14.246-8.582-.961-3.43-.012-7.136,2.673-10.435A21.511,21.511,0,0,1,50.883,5.956c9.415-2.636,18.641.815,20.568,7.695h0c1.928,6.88-4.163,14.623-13.578,17.261A23.478,23.478,0,0,1,51.551,31.8ZM57.308,8.054a20.887,20.887,0,0,0-5.617.791,18.509,18.509,0,0,0-9.386,5.829C40.253,17.2,39.52,20,40.21,22.466c1.481,5.288,9.033,7.747,16.854,5.557s12.981-8.269,11.5-13.557C67.445,10.475,62.854,8.054,57.308,8.054Z"/><path d="M59.265,56.263a5.372,5.372,0,0,1-5.155-3.918l-1.562-5.578a5.369,5.369,0,0,1,3.717-6.609l7.786-2.18a5.359,5.359,0,0,1,6.608,3.716l1.563,5.577a5.363,5.363,0,0,1-3.717,6.61h0l-7.786,2.181A5.407,5.407,0,0,1,59.265,56.263ZM65.5,40.778a2.38,2.38,0,0,0-.637.088l-7.786,2.181a2.364,2.364,0,0,0-1.636,2.911L57,51.536a2.362,2.362,0,0,0,2.911,1.637L67.7,50.992a2.364,2.364,0,0,0,1.637-2.912L67.771,42.5A2.368,2.368,0,0,0,65.5,40.778ZM68.1,52.437h0Z"/><path d="M115.4,47.535c-1.385-2.626-4.641-4.21-7.62-4.928-.557-3.109-5.588-6.171-11.721-9.891-1.305-.792-4.974-3.085-4.974-3.085-4.939-3.157-10.99-7.018-19.5-6.838a17.733,17.733,0,1,0-29.308,8.623c-.613.4-2.126,1.472-2.224,1.571C30.239,40.4,17.452,55.916,18.4,62.555c-2.933,2.872-4.55,6.355-4.229,9.274a5.314,5.314,0,0,0,2.744,4.194c1.791.992,4.587.559,6.367-.109a.588.588,0,0,1,.611.1,3.694,3.694,0,0,0,2.464.9,3.751,3.751,0,0,0,1.551-.331c2.3-1.039,2.912-5.516,2.962-8.039,2.944-1.043,5.592-4.808,8.589-9.081,1.229-1.753,2.492-3.54,3.816-5.219,1.157,4.2,2.389,8.183,3.373,11.361.91,2.934,1.849,5.968,1.886,6.561-.1,9.316.716,24.414,2.509,28.529a95.62,95.62,0,0,0,7.7,13.036,5.846,5.846,0,0,1,.978,4.207c-.757,4.8.808,8.033,4.3,8.876a14.03,14.03,0,0,0,3.31.424,8.411,8.411,0,0,0,4.773-1.32,7.515,7.515,0,0,0,3.188-5.2l.064-.417c.352-2.244.749-4.787.025-7.238-.522-1.773-1.33-4-2.186-6.359-1.521-4.192-3.245-8.944-3.511-11.639-.256-2.582.7-10.227,1.1-13.07a.767.767,0,0,1,.6-.579.808.808,0,0,1,.786.3c.529,1.125,4.06,8.68,4.809,11.4a38.078,38.078,0,0,1,.831,6.477,49.612,49.612,0,0,0,1.529,10.266,47.533,47.533,0,0,0,2.794,7.32,8.269,8.269,0,0,0,5.374,3.87,11.258,11.258,0,0,0,8.8-1.87,5.137,5.137,0,0,0,2.242-3.76,10.473,10.473,0,0,0-2.623-7.589,3.9,3.9,0,0,1-1.308-3.68c1.06-5.013,2.078-12.383,1.906-15.368-.269-4.716-4.855-16.332-8.969-24.221-1.045-2-2.321-8.245-3.671-14.855-.323-1.577-.653-3.187-.99-4.8,1.662,1.062,3.185,2.053,4.572,2.956,6.081,3.963,9.437,6.151,12.069,6.151.024,0,.046-.006.07-.007a13.819,13.819,0,0,0,3.527,4.821,3.847,3.847,0,0,0,2.42.791,3.452,3.452,0,0,0,3.034-1.215c.4-.565.417-2.021.919-2.387a3.318,3.318,0,0,1,1.044-.39c2.388-.887,4.252-1.7,4.905-3.091A5.423,5.423,0,0,0,115.4,47.535ZM85.3,29.605a1.45,1.45,0,0,1-.909.089A3.989,3.989,0,0,1,82.349,28.1C83.37,28.564,84.35,29.071,85.3,29.605ZM40.21,22.466a14.73,14.73,0,1,1,6.964,8.866A14.748,14.748,0,0,1,40.21,22.466ZM26.672,73.849a.712.712,0,0,1-.706-.019c-1.551-1.318-2.343-1.475-3.163-.984-.986.585-3.5,1.073-4.436.552a2.305,2.305,0,0,1-1.216-1.9c-.177-1.617.777-4.233,3.218-6.681l7.524,3.5C27.921,70.514,27.278,73.476,26.672,73.849ZM37,57.739C34.357,61.51,31.628,65.4,29.6,65.8l-8.319-3.867C20.637,58.081,30.445,44.753,39.767,37A89.532,89.532,0,0,0,42.332,50.68,88.111,88.111,0,0,0,37,57.739Zm33.373,49.987c.84,2.314,1.632,4.5,2.129,6.184a13.992,13.992,0,0,1-.111,5.926l-.066.423a4.614,4.614,0,0,1-1.893,3.165c-1.331.891-3.3,1.056-5.708.473-1.857-.449-2.542-2.3-2.039-5.493a8.865,8.865,0,0,0-1.477-6.386A92.574,92.574,0,0,1,53.792,99.5c-.851-1.955-1.53-7.681-1.916-14.146,5.087-1.74,11.557-1.5,15.205,2.2A48.678,48.678,0,0,0,66.7,95.36C67,98.429,68.717,103.155,70.375,107.726ZM90.3,77.906c1.842,4.736,3.115,8.928,3.236,11.043.151,2.626-.851,9.861-1.847,14.574a6.913,6.913,0,0,0,2.01,6.306,7.417,7.417,0,0,1,1.879,5.21,2.168,2.168,0,0,1-.931,1.641,8.426,8.426,0,0,1-6.456,1.441,5.307,5.307,0,0,1-3.457-2.459,45.7,45.7,0,0,1-2.51-6.668,47.233,47.233,0,0,1-1.412-9.636,40.045,40.045,0,0,0-.93-7.045A68.327,68.327,0,0,0,76.974,85C79.939,80.172,87.9,77.586,90.3,77.906ZM84.9,65.942c1.485,2.848,2.927,5.965,4.2,8.993a22.055,22.055,0,0,0-13.54,6.924c-.145-.314-.277-.6-.385-.829-.194-.418-.427-.893-.477-.964a3.823,3.823,0,0,0-3.867-1.6,3.777,3.777,0,0,0-2.97,2.88c-.01.045-.019.09-.025.136-.018.126-.157,1.1-.333,2.494-4.484-3.163-10.712-3.238-15.78-1.718-.15-3.424-.217-6.918-.183-10.065.009-.853-.486-2.526-2.019-7.479-2.506-8.092-6.642-21.468-6.872-29.942.735-.52,1.453-.975,2.161-1.394.3.191.589.39.9.565a17.731,17.731,0,0,0,24.145-6.762c.247-.441.465-.892.673-1.346a23.727,23.727,0,0,1,3.792.039c2.538,4.4,4.8,15.454,6.634,24.425C82.461,57.713,83.657,63.566,84.9,65.942Zm4.21-20.595c-2.058-1.342-4.39-2.86-7.093-4.556a90.46,90.46,0,0,0-4.062-14.273c.054.014.1.033.157.047.763,2,2.638,5.4,5.634,6.059a4.476,4.476,0,0,0,.964.1A5.16,5.16,0,0,0,88.124,31.3c.453.286,5.057,3.175,6.377,3.976,3.186,1.932,10.552,6.4,10.349,7.889L99.663,51C97.965,51.139,94.36,48.771,89.106,45.347Zm23.657,5.87c-.335.572-2.663,1.376-3.521,1.69-1.207.445-1.707.628-2.076,1.071a3.8,3.8,0,0,0-.693,1.969c-.155,1.092-1.162.771-1.481.523a10.969,10.969,0,0,1-2.755-3.924l4.674-7.056c2.73.627,5.06,1.976,5.835,3.446A2.226,2.226,0,0,1,112.763,51.217Z"/><path d="M7.913,46.474a3.952,3.952,0,0,1-3.947-3.948,4.461,4.461,0,0,1,4.208-4.262c2.268,0,4.028,2.458,4.028,4.573C12.2,45.113,10.021,46.474,7.913,46.474Zm.261-5.21a1.523,1.523,0,0,0-1.208,1.262.949.949,0,0,0,.947.948c.639,0,1.289-.322,1.289-.637C9.2,42.129,8.514,41.264,8.174,41.264Z"/><text x="0" y="143" fill="#000000" font-size="5px" font-weight="bold" font-family="'Helvetica Neue', Helvetica, Arial-Unicode, Arial, Sans-serif">Created by Victoruler</text><text x="0" y="148" fill="#000000" font-size="5px" font-weight="bold" font-family="'Helvetica Neue', Helvetica, Arial-Unicode, Arial, Sans-serif">from the Noun Project</text></svg>