<svg width="97" height="96" viewBox="0 0 97 96" fill="none" xmlns="http://www.w3.org/2000/svg">
<path d="M10.5451 18C9.34011 18 8.36328 18.9612 8.36328 20.1469V52.3503C8.36328 53.536 9.34011 54.4972 10.5451 54.4972H49.8178C44.5451 45.4981 33.8997 27.3 33.5 26.5C33.1003 25.7 33.6665 24.5 33.9996 24L44.5 18H10.5451Z" fill="#A8ABFF"/>
<path d="M21.9996 85H13.9996V88C13.9996 89.1046 14.8951 90 15.9996 90H19.9996C21.1042 90 21.9996 89.1046 21.9996 88V85Z" fill="#A8ABFF"/>
<path d="M33.9996 88V85H25.9996V88C25.9996 89.1046 26.8951 90 27.9996 90H31.9996C33.1042 90 33.9996 89.1046 33.9996 88Z" fill="#A8ABFF"/>
<path d="M45.9996 85H37.9996V88C37.9996 89.1046 38.8951 90 39.9996 90H43.9996C45.1042 90 45.9996 89.1046 45.9996 88V85Z" fill="#A8ABFF"/>
<path d="M47.9997 41.7321C47.4474 40.7755 47.7752 39.5523 48.7318 39L67.7843 28C68.7409 27.4477 69.9641 27.7755 70.5164 28.7321L81.5164 47.7846C82.0687 48.7412 81.7409 49.9644 80.7843 50.5167L61.7318 61.5167C60.7752 62.069 59.552 61.7412 58.9997 60.7846L47.9997 41.7321Z" fill="#A8ABFF"/>
<path d="M65.815 72.732C65.2627 71.7755 65.5904 70.5523 66.547 70L85.5996 59C86.5562 58.4477 87.7793 58.7754 88.3316 59.732L89.5167 61.7845C90.069 62.741 89.7412 63.9642 88.7846 64.5165L69.7321 75.5165C68.7755 76.0688 67.5523 75.7411 67 74.7845L65.815 72.732Z" fill="#A8ABFF"/>
<path d="M7.59067 95.5H52.3179C52.6483 95.5 52.9615 95.4277 53.2422 95.2984C53.9851 94.9561 54.4998 94.2137 54.4998 93.3531V63M7.59067 95.5C6.38568 95.5 5.40885 94.5388 5.40885 93.3531V19.822C5.40885 17.6211 6.75513 15.7296 8.68157 14.9014C8.94744 14.7871 9.22437 14.693 9.51032 14.6212M7.59067 95.5H4.31794C3.11295 95.5 2.13612 94.5388 2.13612 93.3531V34.8503M10.8634 14.4548H49.0452V5.06215C49.0452 2.54254 46.9694 0.5 44.4088 0.5H5.13612M10.8634 14.4548C10.3963 14.4548 9.94298 14.5126 9.51032 14.6212M10.8634 14.4548L9.51032 14.6212M9.51032 14.6212L5.95851 15.0581C3.77482 15.3267 2.13612 17.1533 2.13612 19.3187V34.8503M2.13612 34.8503H0.499756V5.06215C0.499756 2.54254 2.57553 0.5 5.13612 0.5M9.77248 14.4548V5.06215C9.77248 2.54254 7.69671 0.5 5.13612 0.5M13.4998 11H44.9998M13.4998 5.99999H44.9998M16.9997 42.5V39M16.9997 39V37M16.9997 39H13.9997M16.9997 39H20.4997M16.9997 37V30H21.4997C23.4327 30 24.9997 31.567 24.9997 33.5C24.9997 35.433 23.4327 37 21.4997 37H16.9997ZM16.9997 37H13.9997M38.0694 40.6442L36.3891 49.9273M33.8949 36.9262L25.9998 40.0754M35.0063 39.7128L29.1489 47.9705M74.6906 13.0509L83.9271 11.131M70.8658 8.97403L73.8096 1.00006M73.6802 10.013L81.7836 3.94384M36.8298 22.4764L34.3784 23.8917C33.3409 24.4907 32.9854 25.8174 33.5844 26.855L64.9152 81.1214C65.5142 82.159 66.8409 82.5144 67.8784 81.9154L94.432 66.5847C95.4695 65.9857 95.825 64.659 95.226 63.6214L63.8952 9.35502C63.2962 8.31747 61.9695 7.96198 60.932 8.56101L58.4805 9.97638M36.8298 22.4764L38.4732 25.3228C39.0723 26.3604 40.399 26.7159 41.4365 26.1168L59.3299 15.7861C60.3674 15.1871 60.7229 13.8604 60.1239 12.8228L58.4805 9.97638M36.8298 22.4764L58.4805 9.97638M69.8596 16.6857L66.8377 11.4515M74.4531 24.6417L71.4311 19.4075M55.9997 43L68.2449 49.2093L68.1241 36M45.9168 35.5166L64.9694 24.5166C65.926 23.9643 66.2537 22.7411 65.7014 21.7845L64.5164 19.732C63.9641 18.7755 62.7409 18.4477 61.7844 19L42.7318 30C41.7752 30.5523 41.4475 31.7755 41.9998 32.7321L43.1848 34.7845C43.7371 35.7411 44.9603 36.0688 45.9168 35.5166ZM13.9997 82H21.9997V79C21.9997 77.8954 21.1043 77 19.9997 77H15.9997C14.8952 77 13.9997 77.8954 13.9997 79V82ZM25.9997 82H33.9997V79C33.9997 77.8954 33.1043 77 31.9997 77H27.9997C26.8952 77 25.9997 77.8954 25.9997 79V82ZM37.9997 82H45.9997V79C45.9997 77.8954 45.1043 77 43.9997 77H39.9997C38.8952 77 37.9997 77.8954 37.9997 79V82ZM13.9997 74H21.9997V71C21.9997 69.8954 21.1043 69 19.9997 69H15.9997C14.8952 69 13.9997 69.8954 13.9997 71V74ZM25.9997 74H33.9997V71C33.9997 69.8954 33.1043 69 31.9997 69H27.9997C26.8952 69 25.9997 69.8954 25.9997 71V74ZM37.9997 74H45.9997V71C45.9997 69.8954 45.1043 69 43.9997 69H39.9997C38.8952 69 37.9997 69.8954 37.9997 71V74ZM13.9997 66H21.9997V63C21.9997 61.8954 21.1043 61 19.9997 61H15.9997C14.8952 61 13.9997 61.8954 13.9997 63V66ZM25.9997 66V63C25.9997 61.8954 26.8952 61 27.9997 61H31.9997C33.1043 61 33.9997 61.8954 33.9997 63V66H25.9997ZM37.9997 66H45.9997V63C45.9997 61.8954 45.1043 61 43.9997 61H39.9997C38.8952 61 37.9997 61.8954 37.9997 63V66Z" stroke="#000577" stroke-linecap="round" stroke-linejoin="round"/>
</svg>
