<svg width="32" height="32" viewBox="0 0 32 32" fill="none" xmlns="http://www.w3.org/2000/svg">
<path d="M20.1781 19.7222C21.5836 18.5451 22.4057 16.9551 22.7178 15.9432C25.1756 15.9432 25.3394 11.1621 23.3732 11.1621C23.3732 11.1621 23.4684 10.5079 23.5037 9.5V8.00365M20.1781 19.7222C19.1239 20.605 17.7415 21.2556 16 21.2556C11.9365 21.2556 9.82832 17.714 9.28216 15.9432C6.82444 15.9432 6.66056 11.1621 8.62676 11.1621C8.62676 11.1621 8.53163 10.5079 8.49634 9.5V8.00365M20.1781 19.7222C20.1781 19.7222 20.7477 21.6746 21.7535 22.3371M10.2465 22.3371C11.2523 21.6746 11.8219 19.7222 11.8219 19.7222M10.2465 22.3371L7.77636 23.6796M10.2465 22.3371L16 24.9816M21.7535 22.3371L30.4386 27.0576C31.0975 27.4916 31.5 28.2681 31.5 29.1054C31.5 30.4279 30.5135 31.5 29.2966 31.5H18M21.7535 22.3371L24.2236 23.6796L18 28L17.439 27.1534M21.7535 22.3371L16 24.9816M7.77636 23.6796L14 28L14.561 27.1534M7.77636 23.6796L6.5 24.3734M16 24.9816L14.561 27.1534M16 24.9816L17.439 27.1534M14 31.5H18M14 31.5L15 27.5M14 31.5H10M18 31.5L17 27.5M15 27.5L15.4 27.8C15.7556 28.0667 16.2444 28.0667 16.6 27.8L17 27.5M15 27.5L14.561 27.1534M17 27.5L17.439 27.1534M6.5 24.3734L1.56136 27.0576C0.902454 27.4916 0.5 28.2681 0.5 29.1054C0.5 30.4279 1.48648 31.5 2.70337 31.5H10M6.5 24.3734L10 31.5M25.5 24.3734L22 31.5" stroke="#000577" stroke-linecap="round" stroke-linejoin="round"/>
<path d="M14.0002 10C19.4396 8.47518 20.0949 6.65355 21.5002 3.5L21.5126 3.56879C22.1298 6.99132 22.4797 8.93195 25.0002 10C25.0002 10 26.5002 0.5 16.5002 0.5C6.50023 0.5 7.00023 10 7.00023 10C10.3842 9.56507 11.8792 8.74926 14.0002 6.5V10Z" fill="#A8ABFF" stroke="#A8ABFF" stroke-linecap="round" stroke-linejoin="round"/>
<path d="M13.5 12C13.5 12.2761 13.2761 12.5 13 12.5C12.7239 12.5 12.5 12.2761 12.5 12C12.5 11.7239 12.7239 11.5 13 11.5C13.2761 11.5 13.5 11.7239 13.5 12ZM19.5 12C19.5 12.2761 19.2761 12.5 19 12.5C18.7239 12.5 18.5 12.2761 18.5 12C18.5 11.7239 18.7239 11.5 19 11.5C19.2761 11.5 19.5 11.7239 19.5 12Z" fill="#071563" stroke="#000577"/>
</svg>
