<svg width="32" height="32" viewBox="0 0 32 32" fill="none" xmlns="http://www.w3.org/2000/svg">
<path d="M20.1781 19.7222C21.5836 18.5452 22.4057 16.9551 22.7178 15.9432C25.1756 15.9432 25.3394 11.1621 23.3732 11.1621C23.3732 11.1621 23.4684 10.5079 23.5037 9.5V8.00366C23.5037 3.8595 20.1442 0.5 16 0.5C11.8558 0.5 8.49634 3.8595 8.49634 8.00366V9.5C8.53163 10.5079 8.62676 11.1621 8.62676 11.1621C6.66056 11.1621 6.82444 15.9432 9.28216 15.9432C9.82832 17.714 11.9365 21.2556 16 21.2556C17.7415 21.2556 19.1239 20.6051 20.1781 19.7222ZM20.1781 19.7222C20.1781 19.7222 20.7477 21.6746 21.7535 22.3371M10.2465 22.3371L1.56136 27.0576C0.902454 27.4916 0.5 28.2681 0.5 29.1054C0.5 30.4279 1.48648 31.5 2.70337 31.5H29.2966C30.5135 31.5 31.5 30.4279 31.5 29.1054C31.5 28.2681 31.0975 27.4916 30.4386 27.0576L21.7535 22.3371M10.2465 22.3371C11.2523 21.6746 11.8219 19.7222 11.8219 19.7222M10.2465 22.3371C14.5254 25.8044 17.0382 25.925 21.7535 22.3371" stroke="#000577" stroke-linecap="round" stroke-linejoin="round"/>
<path d="M10 7.75059C10 5.12465 11.6869 2.8927 14.0362 2.07934C15.08 1.71796 16 2.64603 16 3.75059V7.48005C16 8.37812 15.2726 9.02339 14.4317 9.33872L13.2238 9.79168C12.4614 10.0776 11.6058 9.95495 10.9544 9.46639L10.8 9.35059C10.2964 8.97289 10 8.38011 10 7.75059Z" fill="#A8ABFF"/>
<path d="M22 7.75059C22 5.12465 20.3131 2.8927 17.9638 2.07934C16.92 1.71796 16 2.64603 16 3.75059V7.48005C16 8.37812 16.7274 9.02339 17.5683 9.33872L18.7762 9.79168C19.5386 10.0776 20.3942 9.95495 21.0456 9.46639L21.2 9.35059C21.7036 8.97289 22 8.38011 22 7.75059Z" fill="#A8ABFF"/>
<path d="M16 3.75059V7.48005M16 3.75059C16 2.64603 15.08 1.71796 14.0362 2.07934C11.6869 2.8927 10 5.12465 10 7.75059C10 8.38011 10.2964 8.97289 10.8 9.35059L10.9544 9.46639C11.6058 9.95495 12.4614 10.0776 13.2238 9.79168L14.4317 9.33872C15.2726 9.02339 16 8.37812 16 7.48005M16 3.75059C16 2.64603 16.92 1.71796 17.9638 2.07934C20.3131 2.8927 22 5.12465 22 7.75059C22 8.38011 21.7036 8.97289 21.2 9.35059L21.0456 9.46639C20.3942 9.95495 19.5386 10.0776 18.7762 9.79168L17.5683 9.33872C16.7274 9.02339 16 8.37812 16 7.48005" stroke="#A8ABFF" stroke-linecap="round" stroke-linejoin="round"/>
<path d="M13.5 12C13.5 12.2761 13.2761 12.5 13 12.5C12.7239 12.5 12.5 12.2761 12.5 12C12.5 11.7239 12.7239 11.5 13 11.5C13.2761 11.5 13.5 11.7239 13.5 12ZM19.5 12C19.5 12.2761 19.2761 12.5 19 12.5C18.7239 12.5 18.5 12.2761 18.5 12C18.5 11.7239 18.7239 11.5 19 11.5C19.2761 11.5 19.5 11.7239 19.5 12Z" fill="#071563" stroke="#000577"/>
</svg>
