<svg width="32" height="32" viewBox="0 0 32 32" fill="none" xmlns="http://www.w3.org/2000/svg">
<path d="M6.03223 24.5L6.50017 10C6.50017 10 6.00018 0.5 16.0002 0.5C26.0002 0.5 25.4999 10 25.4999 10V24C22.5737 22.7483 21.0682 21.8398 20.4999 20C21.8994 18.571 22.7908 17.6859 22.9999 16C25.3288 15.8076 25.5372 14.5873 24.9999 11.5L23.9999 11L23.7926 9.54843C22.3685 8.46359 19.9999 6.00023 19.9999 6.00023C16.7256 7.95644 14.7829 8.20934 10.9999 6.50023C10.9999 6.50023 10.2231 8.63405 7.99995 9.59343V11C5.81267 10.51 5.99995 17.5 8.99995 16C8.88514 17.5354 9.44772 18.9102 11.4999 20.5L10.5322 21.5L6.03223 24.5Z" fill="#A8ABFF" stroke="#A8ABFF" stroke-linecap="round" stroke-linejoin="round"/>
<path d="M20.1781 19.7222C21.5836 18.5452 22.4057 16.9551 22.7178 15.9432C25.1756 15.9432 25.3394 11.1621 23.3732 11.1621C23.3732 11.1621 23.4684 10.5079 23.5037 9.5M20.1781 19.7222C19.1239 20.6051 17.7415 21.2556 16 21.2556C11.9365 21.2556 9.82832 17.714 9.28216 15.9432C6.82444 15.9432 6.66056 11.1621 8.62676 11.1621C8.62676 11.1621 8.53163 10.5079 8.49634 9.5M20.1781 19.7222C20.1781 19.7222 20.7477 21.6746 21.7535 22.3371M10.2465 22.3371L1.56136 27.0576C0.902454 27.4916 0.5 28.2681 0.5 29.1054C0.5 30.4279 1.48648 31.5 2.70337 31.5H29.2966C30.5135 31.5 31.5 30.4279 31.5 29.1054C31.5 28.2681 31.0975 27.4916 30.4386 27.0576L21.7535 22.3371M10.2465 22.3371C11.2523 21.6746 11.8219 19.7222 11.8219 19.7222M10.2465 22.3371C14.5254 25.8044 17.0382 25.925 21.7535 22.3371" stroke="#000577" stroke-linecap="round" stroke-linejoin="round"/>
<circle cx="13" cy="12" r="1" fill="#000577"/>
<circle cx="19" cy="12" r="1" fill="#000577"/>
</svg>
